<svg width="360" height="360" viewBox="0 0 360 360" fill="none" xmlns="http://www.w3.org/2000/svg">
<rect width="360" height="360" fill="#F7FAFD"/>
<path d="M222.295 171.921C222.295 172.277 222.225 172.63 222.089 172.96C221.952 173.289 221.752 173.589 221.5 173.841C221.248 174.093 220.949 174.293 220.619 174.429C220.29 174.566 219.937 174.636 219.58 174.636H165.286C164.93 174.636 164.577 174.566 164.247 174.429C163.918 174.293 163.618 174.093 163.366 173.841C163.114 173.589 162.914 173.289 162.778 172.96C162.641 172.63 162.571 172.277 162.572 171.921V142.06C162.571 141.703 162.641 141.35 162.778 141.02C162.914 140.691 163.114 140.392 163.366 140.139C163.618 139.887 163.918 139.687 164.247 139.551C164.577 139.415 164.93 139.344 165.286 139.345H219.58C219.937 139.344 220.29 139.415 220.619 139.551C220.949 139.687 221.248 139.887 221.5 140.139C221.752 140.392 221.952 140.691 222.089 141.02C222.225 141.35 222.295 141.703 222.295 142.06V155.628L231.146 165.585C231.32 165.78 231.434 166.022 231.474 166.281C231.514 166.539 231.478 166.804 231.371 167.043C231.263 167.282 231.089 167.485 230.869 167.627C230.649 167.769 230.393 167.844 230.131 167.844H222.295V171.921Z" fill="#F7FAFD" stroke="#A1B1C6" stroke-linecap="round" stroke-linejoin="round"/>
<path d="M214.15 148.846H193.791" stroke="#A1B1C6" stroke-linecap="round" stroke-linejoin="round"/>
<path d="M214.15 155.633H193.791" stroke="#A1B1C6" stroke-linecap="round" stroke-linejoin="round"/>
<path d="M205.102 162.419H193.791" stroke="#A1B1C6" stroke-linecap="round" stroke-linejoin="round"/>
<path d="M137.352 219.21C137.352 220.024 137.674 220.804 138.249 221.38C138.824 221.956 139.604 222.281 140.417 222.282H201.729C202.544 222.282 203.325 221.959 203.901 221.382C204.478 220.806 204.801 220.025 204.801 219.21V185.487C204.8 184.674 204.475 183.894 203.899 183.319C203.323 182.745 202.543 182.422 201.729 182.422H140.417C139.605 182.423 138.826 182.747 138.251 183.322C137.677 183.896 137.353 184.675 137.352 185.487V200.817L127.357 212.06C127.162 212.282 127.034 212.555 126.99 212.848C126.946 213.14 126.987 213.439 127.109 213.708C127.231 213.978 127.428 214.207 127.676 214.367C127.924 214.527 128.214 214.613 128.509 214.612H137.358L137.352 219.21Z" fill="#F7FAFD" stroke="#A1B1C6" stroke-linecap="round" stroke-linejoin="round"/>
<path d="M197.133 196.68H174.14" stroke="#A1B1C6" stroke-linecap="round" stroke-linejoin="round"/>
<path d="M197.133 204.344H174.14" stroke="#A1B1C6" stroke-linecap="round" stroke-linejoin="round"/>
<path d="M186.915 212.009H174.14" stroke="#A1B1C6" stroke-linecap="round" stroke-linejoin="round"/>
<path d="M166.98 156.689C166.98 159.489 168.092 162.174 170.072 164.154C172.052 166.134 174.737 167.246 177.537 167.246C180.337 167.246 183.023 166.134 185.003 164.154C186.982 162.174 188.095 159.489 188.095 156.689C188.095 153.889 186.982 151.203 185.003 149.223C183.023 147.243 180.337 146.131 177.537 146.131C174.737 146.131 172.052 147.243 170.072 149.223C168.092 151.203 166.98 153.889 166.98 156.689V156.689Z" fill="#F7FAFD" stroke="#A1B1C6" stroke-linecap="round" stroke-linejoin="round"/>
<path d="M174.14 156.448C174.14 157.349 174.498 158.213 175.135 158.85C175.772 159.487 176.636 159.845 177.537 159.845C178.438 159.845 179.302 159.487 179.939 158.85C180.576 158.213 180.934 157.349 180.934 156.448V154.746C180.934 153.845 180.576 152.981 179.939 152.343C179.302 151.706 178.438 151.348 177.537 151.348C176.636 151.348 175.772 151.706 175.135 152.343C174.498 152.981 174.14 153.845 174.14 154.746V156.448Z" fill="#F7FAFD"/>
<path d="M174.14 156.448C174.14 157.349 174.498 158.213 175.135 158.85C175.772 159.487 176.636 159.845 177.537 159.845C178.438 159.845 179.302 159.487 179.939 158.85C180.576 158.213 180.934 157.349 180.934 156.448V154.746C180.934 153.845 180.576 152.981 179.939 152.343C179.302 151.706 178.438 151.348 177.537 151.348C176.636 151.348 175.772 151.706 175.135 152.343C174.498 152.981 174.14 153.845 174.14 154.746V156.448Z" stroke="#A1B1C6" stroke-linecap="round" stroke-linejoin="round"/>
<path d="M170.483 164.544C172.421 166.284 174.933 167.246 177.537 167.246C180.141 167.246 182.654 166.284 184.591 164.544C184.011 163.151 183.032 161.961 181.776 161.124C180.521 160.287 179.046 159.841 177.537 159.841C176.028 159.841 174.553 160.287 173.298 161.124C172.043 161.961 171.063 163.151 170.483 164.544Z" fill="#F7FAFD" stroke="#A1B1C6" stroke-linecap="round" stroke-linejoin="round"/>
<path d="M174.168 154.307C174.257 153.621 174.553 152.98 175.016 152.467C175.479 151.954 176.088 151.595 176.761 151.437C177.433 151.279 178.138 151.331 178.781 151.584C179.424 151.837 179.974 152.281 180.358 152.855C179.554 153.634 178.554 154.181 177.464 154.436C176.374 154.692 175.235 154.647 174.168 154.307V154.307Z" fill="#F7FAFD" stroke="#A1B1C6" stroke-linecap="round" stroke-linejoin="round"/>
<path d="M142.284 201.428C142.284 204.59 143.54 207.623 145.775 209.859C148.011 212.094 151.044 213.35 154.205 213.35C157.367 213.35 160.4 212.094 162.636 209.859C164.871 207.623 166.127 204.59 166.127 201.428C166.127 198.267 164.871 195.234 162.636 192.998C160.4 190.763 157.367 189.507 154.205 189.507C151.044 189.507 148.011 190.763 145.775 192.998C143.54 195.234 142.284 198.267 142.284 201.428Z" fill="#F7FAFD" stroke="#A1B1C6" stroke-linecap="round" stroke-linejoin="round"/>
<path d="M147.383 197.097H161.029V208.38H147.383V197.097Z" fill="#F7FAFD"/>
<path d="M147.383 197.097H161.029V208.38H147.383V197.097Z" stroke="#A1B1C6" stroke-linecap="round" stroke-linejoin="round"/>
<path d="M161.029 198.789V206.688C161.029 206.91 160.986 207.131 160.901 207.336C160.815 207.542 160.691 207.728 160.533 207.885C160.376 208.043 160.189 208.167 159.984 208.252C159.778 208.337 159.558 208.38 159.336 208.38H149.075C148.853 208.38 148.633 208.337 148.427 208.252C148.222 208.167 148.035 208.042 147.878 207.885C147.721 207.728 147.596 207.541 147.511 207.336C147.427 207.13 147.383 206.91 147.383 206.688V198.789C147.383 198.567 147.427 198.347 147.511 198.141C147.596 197.936 147.721 197.749 147.878 197.592C148.035 197.435 148.222 197.31 148.427 197.225C148.633 197.14 148.853 197.097 149.075 197.097H159.336C159.404 197.097 159.464 197.103 159.534 197.108C159.946 197.157 160.326 197.355 160.601 197.664C160.877 197.974 161.029 198.374 161.029 198.789V198.789Z" stroke="#A1B1C6" stroke-linecap="round" stroke-linejoin="round"/>
<path d="M154.205 197.097V195.028" stroke="#A1B1C6" stroke-linecap="round" stroke-linejoin="round"/>
<path d="M152.769 193.678C152.769 194.059 152.921 194.424 153.19 194.694C153.459 194.963 153.825 195.114 154.205 195.114C154.586 195.114 154.952 194.963 155.221 194.694C155.49 194.424 155.642 194.059 155.642 193.678C155.642 193.297 155.49 192.932 155.221 192.663C154.952 192.393 154.586 192.242 154.205 192.242C153.825 192.242 153.459 192.393 153.19 192.663C152.921 192.932 152.769 193.297 152.769 193.678V193.678Z" fill="#F7FAFD" stroke="#A1B1C6" stroke-linecap="round" stroke-linejoin="round"/>
<path d="M152.541 210.615V208.38H155.871V210.597" stroke="#A1B1C6" stroke-linecap="round" stroke-linejoin="round"/>
<path d="M150.678 202.211C150.678 202.678 150.864 203.127 151.194 203.458C151.525 203.789 151.974 203.974 152.442 203.974C152.909 203.974 153.358 203.789 153.689 203.458C154.02 203.127 154.205 202.678 154.205 202.211C154.205 201.743 154.02 201.294 153.689 200.963C153.358 200.633 152.909 200.447 152.442 200.447C151.974 200.447 151.525 200.633 151.194 200.963C150.864 201.294 150.678 201.743 150.678 202.211V202.211Z" fill="#F7FAFD" stroke="#A1B1C6" stroke-linecap="round" stroke-linejoin="round"/>
<path d="M154.207 202.211C154.207 202.678 154.393 203.127 154.723 203.458C155.054 203.789 155.503 203.974 155.971 203.974C156.438 203.974 156.887 203.789 157.218 203.458C157.549 203.127 157.734 202.678 157.734 202.211C157.734 201.743 157.549 201.294 157.218 200.963C156.887 200.633 156.438 200.447 155.971 200.447C155.503 200.447 155.054 200.633 154.723 200.963C154.393 201.294 154.207 201.743 154.207 202.211V202.211Z" fill="#F7FAFD" stroke="#A1B1C6" stroke-linecap="round" stroke-linejoin="round"/>
</svg>
