<svg width="360" height="360" viewBox="0 0 360 360" fill="none" xmlns="http://www.w3.org/2000/svg">
<rect width="360" height="360" fill="#CE8AE3"/>
<path d="M123.517 179.944C123.517 193.523 128.912 206.546 138.514 216.148C148.115 225.749 161.138 231.144 174.717 231.144C188.297 231.144 201.319 225.749 210.921 216.148C220.523 206.546 225.917 193.523 225.917 179.944C225.917 166.365 220.523 153.342 210.921 143.74C201.319 134.138 188.297 128.744 174.717 128.744C161.138 128.744 148.115 134.138 138.514 143.74C128.912 153.342 123.517 166.365 123.517 179.944V179.944Z" fill="white" fill-opacity="0.25"/>
<path d="M203.91 203.913H142.582C141.224 203.913 139.922 203.374 138.961 202.413C138.001 201.453 137.462 200.151 137.462 198.793V157.4C137.462 156.178 137.947 155.006 138.811 154.142C139.676 153.278 140.848 152.792 142.07 152.792H204.422C205.644 152.792 206.817 153.278 207.681 154.142C208.545 155.006 209.03 156.178 209.03 157.4V198.793C209.03 200.151 208.491 201.453 207.531 202.413C206.571 203.374 205.268 203.913 203.91 203.913Z" fill="#CE8AE3"/>
<path d="M203.91 203.913H142.582C141.224 203.913 139.922 203.374 138.961 202.413C138.001 201.453 137.462 200.151 137.462 198.793V157.4C137.462 156.178 137.947 155.006 138.811 154.142C139.676 153.278 140.848 152.792 142.07 152.792H204.422C205.644 152.792 206.817 153.278 207.681 154.142C208.545 155.006 209.03 156.178 209.03 157.4V198.793C209.03 200.151 208.491 201.453 207.531 202.413C206.571 203.374 205.268 203.913 203.91 203.913Z" stroke="#46005B" stroke-linecap="round" stroke-linejoin="round"/>
<path d="M137.462 198.537C137.462 199.243 137.601 199.942 137.871 200.594C138.141 201.247 138.537 201.839 139.036 202.338C139.536 202.838 140.128 203.234 140.78 203.504C141.433 203.774 142.132 203.913 142.838 203.913H203.654C204.36 203.913 205.059 203.774 205.712 203.504C206.364 203.234 206.957 202.838 207.456 202.338C207.955 201.839 208.351 201.247 208.621 200.594C208.891 199.942 209.03 199.243 209.03 198.537V195.734H137.462V198.537Z" fill="white" stroke="#46005B" stroke-linecap="round" stroke-linejoin="round"/>
<path d="M179.38 212.093H167.112L168.133 203.913H178.358L179.38 212.093Z" fill="white"/>
<path d="M179.38 212.093H167.112L168.133 203.913H178.358L179.38 212.093Z" stroke="#46005B" stroke-linecap="round" stroke-linejoin="round"/>
<path d="M186.537 216.182H159.954C159.956 215.097 160.388 214.057 161.156 213.29C161.924 212.524 162.965 212.093 164.05 212.093H182.447C182.984 212.093 183.516 212.199 184.012 212.404C184.508 212.61 184.959 212.911 185.339 213.29C185.719 213.67 186.02 214.121 186.226 214.617C186.431 215.113 186.537 215.645 186.537 216.182Z" fill="white" stroke="#46005B" stroke-linecap="round" stroke-linejoin="round"/>
<path d="M210.048 184.488H156.892C156.078 184.485 155.298 184.161 154.723 183.585C154.147 183.01 153.822 182.23 153.82 181.416V145.636H213.12V181.416C213.118 182.23 212.793 183.01 212.218 183.585C211.642 184.161 210.862 184.485 210.048 184.488Z" fill="white" stroke="#46005B" stroke-linecap="round" stroke-linejoin="round"/>
<path d="M213.12 145.636H153.82V136.439C153.822 135.625 154.147 134.845 154.723 134.269C155.298 133.694 156.078 133.369 156.892 133.367H210.048C210.862 133.369 211.642 133.694 212.218 134.269C212.793 134.845 213.118 135.625 213.12 136.439V145.636Z" fill="white" stroke="#46005B" stroke-linecap="round" stroke-linejoin="round"/>
<path d="M157.908 139.501C157.908 140.043 158.124 140.564 158.508 140.947C158.891 141.331 159.411 141.546 159.954 141.546C160.496 141.546 161.017 141.331 161.4 140.947C161.784 140.564 161.999 140.043 161.999 139.501C161.999 138.958 161.784 138.438 161.4 138.054C161.017 137.671 160.496 137.455 159.954 137.455C159.411 137.455 158.891 137.671 158.508 138.054C158.124 138.438 157.908 138.958 157.908 139.501V139.501Z" fill="#CE8AE3" stroke="#46005B" stroke-linecap="round" stroke-linejoin="round"/>
<path d="M166.088 139.501C166.088 140.043 166.303 140.564 166.687 140.947C167.07 141.331 167.591 141.546 168.133 141.546C168.676 141.546 169.196 141.331 169.579 140.947C169.963 140.564 170.179 140.043 170.179 139.501C170.179 138.958 169.963 138.438 169.579 138.054C169.196 137.671 168.676 137.455 168.133 137.455C167.591 137.455 167.07 137.671 166.687 138.054C166.303 138.438 166.088 138.958 166.088 139.501V139.501Z" fill="#CE8AE3" stroke="#46005B" stroke-linecap="round" stroke-linejoin="round"/>
<path d="M174.268 139.501C174.268 140.043 174.484 140.564 174.867 140.947C175.251 141.331 175.771 141.546 176.314 141.546C176.856 141.546 177.376 141.331 177.76 140.947C178.144 140.564 178.359 140.043 178.359 139.501C178.359 138.958 178.144 138.438 177.76 138.054C177.376 137.671 176.856 137.455 176.314 137.455C175.771 137.455 175.251 137.671 174.867 138.054C174.484 138.438 174.268 138.958 174.268 139.501Z" fill="#CE8AE3" stroke="#46005B" stroke-linecap="round" stroke-linejoin="round"/>
<path d="M172.224 157.905H180.403V166.084H172.224V157.905Z" fill="#CE8AE3" stroke="#46005B" stroke-linecap="round" stroke-linejoin="round"/>
<path d="M185.514 157.905H193.693V166.084H185.514V157.905Z" fill="#CE8AE3" stroke="#46005B" stroke-linecap="round" stroke-linejoin="round"/>
<path d="M198.806 157.905H206.985V166.084H198.806V157.905Z" fill="#CE8AE3" stroke="#46005B" stroke-linecap="round" stroke-linejoin="round"/>
<path d="M172.224 170.173H180.403V178.353H172.224V170.173Z" fill="#CE8AE3" stroke="#46005B" stroke-linecap="round" stroke-linejoin="round"/>
<path d="M185.514 170.173H193.693V178.353H185.514V170.173Z" fill="#CE8AE3" stroke="#46005B" stroke-linecap="round" stroke-linejoin="round"/>
<path d="M198.806 170.173H206.985V178.353H198.806V170.173Z" fill="#CE8AE3" stroke="#46005B" stroke-linecap="round" stroke-linejoin="round"/>
<path d="M159.954 149.725H168.133V153.815H159.954V149.725Z" fill="#CE8AE3" stroke="#46005B" stroke-linecap="round" stroke-linejoin="round"/>
<path d="M172.224 149.725H206.986V153.815H172.224V149.725Z" fill="#CE8AE3" stroke="#46005B" stroke-linejoin="round"/>
<path d="M159.954 157.905H168.133" stroke="#46005B" stroke-linecap="round" stroke-linejoin="round"/>
<path d="M159.954 161.994H168.133" stroke="#46005B" stroke-linecap="round" stroke-linejoin="round"/>
<path d="M159.954 166.084H168.133" stroke="#46005B" stroke-linecap="round" stroke-linejoin="round"/>
<path d="M159.954 170.173H168.133" stroke="#46005B" stroke-linecap="round" stroke-linejoin="round"/>
<path d="M159.954 174.263H168.133" stroke="#46005B" stroke-linecap="round" stroke-linejoin="round"/>
<path d="M159.954 178.353H165.066" stroke="#46005B" stroke-linecap="round" stroke-linejoin="round"/>
<path d="M226.419 200.736C226.124 201.821 225.523 201.86 225.094 200.822L218.388 184.723C217.956 183.685 218.451 183.187 219.489 183.621L235.584 190.327C236.622 190.76 236.584 191.351 235.5 191.652L230.337 193.06C229.753 193.255 229.222 193.584 228.786 194.02C228.351 194.455 228.022 194.987 227.827 195.571L226.419 200.736Z" fill="white" stroke="#46005B" stroke-linejoin="round"/>
<path d="M172.393 199.823C172.393 200.049 172.483 200.266 172.643 200.426C172.803 200.586 173.019 200.676 173.245 200.676C173.472 200.676 173.688 200.586 173.848 200.426C174.008 200.266 174.098 200.049 174.098 199.823C174.098 199.597 174.008 199.38 173.848 199.221C173.688 199.061 173.472 198.971 173.245 198.971C173.019 198.971 172.803 199.061 172.643 199.221C172.483 199.38 172.393 199.597 172.393 199.823Z" fill="#020064" stroke="#46005B" stroke-linecap="round" stroke-linejoin="round"/>
</svg>
