<svg width="360" height="360" viewBox="0 0 360 360" fill="none" xmlns="http://www.w3.org/2000/svg">
<rect width="360" height="360" fill="#C0C0C0"/>
<path d="M128.8 180C128.8 193.579 134.194 206.602 143.796 216.204C153.398 225.806 166.421 231.2 180 231.2C193.579 231.2 206.602 225.806 216.204 216.204C225.806 206.602 231.2 193.579 231.2 180C231.2 166.421 225.806 153.398 216.204 143.796C206.602 134.194 193.579 128.8 180 128.8C166.421 128.8 153.398 134.194 143.796 143.796C134.194 153.398 128.8 166.421 128.8 180V180Z" fill="white" fill-opacity="0.25"/>
<path d="M158.765 207.121C158.765 207.551 160.817 207.964 164.469 208.268C168.121 208.573 173.075 208.744 178.24 208.744C183.405 208.744 188.359 208.573 192.011 208.268C195.663 207.964 197.715 207.551 197.715 207.121C197.715 206.69 195.663 206.277 192.011 205.973C188.359 205.669 183.405 205.498 178.24 205.498C173.075 205.498 168.121 205.669 164.469 205.973C160.817 206.277 158.765 206.69 158.765 207.121V207.121Z" fill="#C0C0C0"/>
<path d="M201.632 203.776C201.632 203.989 201.59 204.2 201.508 204.397C201.427 204.594 201.307 204.773 201.157 204.923C201.006 205.074 200.827 205.193 200.63 205.275C200.433 205.356 200.222 205.398 200.009 205.398H158.765C158.335 205.398 157.922 205.227 157.618 204.923C157.313 204.619 157.142 204.206 157.142 203.776V146.976C157.142 146.546 157.313 146.133 157.617 145.828C157.922 145.524 158.334 145.353 158.765 145.353H192.846C193.06 145.352 193.272 145.394 193.469 145.476C193.667 145.557 193.847 145.677 193.998 145.828L201.166 152.996C201.317 153.147 201.437 153.327 201.519 153.524C201.6 153.722 201.642 153.934 201.641 154.148L201.632 203.776Z" fill="white"/>
<path d="M201.632 203.875C201.632 204.305 201.461 204.718 201.157 205.022C200.852 205.327 200.439 205.498 200.009 205.498H158.765C158.334 205.498 157.922 205.327 157.617 205.022C157.313 204.718 157.142 204.305 157.142 203.875V147.073C157.142 146.643 157.313 146.23 157.617 145.926C157.922 145.621 158.334 145.45 158.765 145.45H192.846C193.06 145.45 193.272 145.491 193.47 145.573C193.667 145.655 193.847 145.775 193.998 145.926L201.166 153.094C201.317 153.246 201.437 153.425 201.518 153.623C201.6 153.821 201.642 154.033 201.641 154.246L201.632 203.875Z" stroke="#E3E3E3" stroke-linejoin="round"/>
<path d="M193.518 151.942C193.518 152.373 193.689 152.786 193.993 153.09C194.298 153.394 194.711 153.565 195.141 153.565H201.475C201.397 153.389 201.29 153.228 201.157 153.089L193.989 145.921C193.851 145.788 193.69 145.681 193.514 145.604L193.518 151.942Z" fill="#E3E3E3" stroke="#E3E3E3" stroke-linecap="round" stroke-linejoin="round"/>
<path d="M222.058 188.332C222.058 187.637 221.782 186.972 221.291 186.481C220.8 185.99 220.135 185.714 219.441 185.714H208.97C208.798 185.714 208.628 185.68 208.469 185.615C208.31 185.549 208.166 185.453 208.044 185.331C207.923 185.21 207.826 185.065 207.76 184.907C207.695 184.748 207.661 184.578 207.661 184.406V173.935C207.661 173.241 207.385 172.575 206.894 172.084C206.403 171.594 205.737 171.318 205.043 171.318H198.5C197.806 171.318 197.14 171.594 196.649 172.084C196.158 172.575 195.882 173.241 195.882 173.935V184.406C195.882 184.578 195.848 184.748 195.783 184.907C195.717 185.065 195.62 185.21 195.499 185.331C195.377 185.453 195.233 185.549 195.074 185.615C194.915 185.68 194.745 185.714 194.573 185.714H184.104C183.76 185.714 183.42 185.782 183.102 185.913C182.784 186.045 182.496 186.238 182.253 186.481C182.01 186.724 181.817 187.012 181.685 187.33C181.554 187.647 181.486 187.988 181.486 188.332V194.876C181.486 195.57 181.762 196.236 182.253 196.727C182.744 197.218 183.409 197.494 184.104 197.494H194.573C194.745 197.494 194.915 197.527 195.074 197.593C195.233 197.659 195.377 197.755 195.499 197.876C195.62 197.998 195.717 198.142 195.783 198.301C195.848 198.46 195.882 198.63 195.882 198.802V209.272C195.882 209.967 196.158 210.632 196.649 211.123C197.14 211.614 197.806 211.89 198.5 211.89H205.043C205.737 211.89 206.403 211.614 206.894 211.123C207.385 210.632 207.661 209.967 207.661 209.272V198.802C207.661 198.63 207.695 198.46 207.76 198.301C207.826 198.142 207.923 197.998 208.044 197.876C208.166 197.755 208.31 197.659 208.469 197.593C208.628 197.527 208.798 197.494 208.97 197.494H219.441C220.135 197.493 220.8 197.218 221.291 196.727C221.782 196.236 222.058 195.57 222.058 194.876V188.332Z" fill="white"/>
<path d="M222.058 188.431C222.058 187.737 221.782 187.071 221.292 186.58C220.801 186.09 220.135 185.814 219.441 185.814H208.97C208.623 185.814 208.29 185.676 208.044 185.43C207.799 185.185 207.661 184.852 207.661 184.504V174.034C207.661 173.34 207.385 172.674 206.894 172.183C206.403 171.692 205.737 171.416 205.043 171.416H198.5C197.806 171.416 197.14 171.692 196.649 172.183C196.158 172.674 195.882 173.34 195.882 174.034V184.504C195.882 184.676 195.848 184.847 195.783 185.005C195.717 185.164 195.62 185.309 195.499 185.43C195.377 185.552 195.233 185.648 195.074 185.714C194.915 185.78 194.745 185.814 194.573 185.814H184.104C183.76 185.814 183.419 185.881 183.102 186.013C182.784 186.144 182.495 186.337 182.252 186.58C182.009 186.823 181.816 187.112 181.685 187.429C181.554 187.747 181.486 188.088 181.486 188.431V194.976C181.486 195.67 181.762 196.336 182.253 196.827C182.744 197.318 183.409 197.594 184.104 197.594H194.573C194.92 197.594 195.253 197.732 195.499 197.977C195.744 198.223 195.882 198.556 195.882 198.903V209.372C195.882 209.716 195.95 210.056 196.081 210.374C196.213 210.692 196.405 210.98 196.649 211.223C196.892 211.467 197.18 211.659 197.498 211.791C197.816 211.922 198.156 211.99 198.5 211.99H205.043C205.387 211.99 205.727 211.922 206.045 211.791C206.363 211.659 206.651 211.467 206.894 211.223C207.138 210.98 207.33 210.692 207.462 210.374C207.593 210.056 207.661 209.716 207.661 209.372V198.902C207.661 198.554 207.799 198.221 208.044 197.976C208.29 197.73 208.623 197.592 208.97 197.592H219.441C220.135 197.592 220.8 197.316 221.291 196.826C221.782 196.335 222.058 195.67 222.058 194.976V188.431Z" stroke="#0B00CE" stroke-linejoin="round"/>
</svg>
